<mxfile host="Electron" agent="Mozilla/5.0 (Windows NT 10.0; Win64; x64) AppleWebKit/537.36 (KHTML, like Gecko) draw.io/24.7.5 Chrome/126.0.6478.183 Electron/31.3.0 Safari/537.36" version="24.7.5">
  <diagram name="页-1" id="Page-1">
    <mxGraphModel dx="1050" dy="717" grid="1" gridSize="10" guides="1" tooltips="1" connect="1" arrows="1" fold="1" page="1" pageScale="1" pageWidth="827" pageHeight="1169" math="0" shadow="0">
      <root>
        <mxCell id="0" />
        <mxCell id="1" parent="0" />
        <mxCell id="kn6pGw_SIHCXtE3x5vHy-82" style="edgeStyle=orthogonalEdgeStyle;rounded=0;orthogonalLoop=1;jettySize=auto;html=1;exitX=1;exitY=0.5;exitDx=0;exitDy=0;entryX=0;entryY=0.5;entryDx=0;entryDy=0;endArrow=open;endFill=0;" edge="1" parent="1" source="kn6pGw_SIHCXtE3x5vHy-78" target="kn6pGw_SIHCXtE3x5vHy-79">
          <mxGeometry relative="1" as="geometry" />
        </mxCell>
        <mxCell id="kn6pGw_SIHCXtE3x5vHy-83" style="edgeStyle=orthogonalEdgeStyle;rounded=0;orthogonalLoop=1;jettySize=auto;html=1;exitX=1;exitY=0.5;exitDx=0;exitDy=0;" edge="1" parent="1" source="kn6pGw_SIHCXtE3x5vHy-78" target="kn6pGw_SIHCXtE3x5vHy-80">
          <mxGeometry relative="1" as="geometry" />
        </mxCell>
        <mxCell id="kn6pGw_SIHCXtE3x5vHy-84" style="edgeStyle=orthogonalEdgeStyle;rounded=0;orthogonalLoop=1;jettySize=auto;html=1;exitX=1;exitY=0.5;exitDx=0;exitDy=0;entryX=0;entryY=0.5;entryDx=0;entryDy=0;" edge="1" parent="1" source="kn6pGw_SIHCXtE3x5vHy-78" target="kn6pGw_SIHCXtE3x5vHy-81">
          <mxGeometry relative="1" as="geometry" />
        </mxCell>
        <mxCell id="kn6pGw_SIHCXtE3x5vHy-78" value="&lt;font face=&quot;Lucida Console&quot; style=&quot;font-size: 18px;&quot;&gt;estpos&lt;/font&gt;" style="rounded=0;whiteSpace=wrap;html=1;fillColor=#dae8fc;strokeColor=#6c8ebf;" vertex="1" parent="1">
          <mxGeometry x="200" y="280" width="120" height="40" as="geometry" />
        </mxCell>
        <mxCell id="kn6pGw_SIHCXtE3x5vHy-79" value="&lt;span style=&quot;font-family: &amp;quot;Lucida Console&amp;quot;;&quot;&gt;&lt;font style=&quot;font-size: 18px;&quot;&gt;rescode：构建观测方程&lt;/font&gt;&lt;/span&gt;" style="rounded=0;whiteSpace=wrap;html=1;fillColor=#f5f5f5;strokeColor=#666666;fontColor=#333333;" vertex="1" parent="1">
          <mxGeometry x="401" y="200" width="239" height="40" as="geometry" />
        </mxCell>
        <mxCell id="kn6pGw_SIHCXtE3x5vHy-80" value="&lt;span style=&quot;font-family: &amp;quot;Lucida Console&amp;quot;;&quot;&gt;&lt;font style=&quot;font-size: 18px;&quot;&gt;lsq：最小二乘&lt;/font&gt;&lt;/span&gt;" style="rounded=0;whiteSpace=wrap;html=1;fillColor=#f5f5f5;strokeColor=#666666;fontColor=#333333;" vertex="1" parent="1">
          <mxGeometry x="401" y="280" width="239" height="40" as="geometry" />
        </mxCell>
        <mxCell id="kn6pGw_SIHCXtE3x5vHy-81" value="&lt;span style=&quot;font-family: &amp;quot;Lucida Console&amp;quot;;&quot;&gt;&lt;font style=&quot;font-size: 18px;&quot;&gt;valsol：解精度分析&lt;/font&gt;&lt;/span&gt;" style="rounded=0;whiteSpace=wrap;html=1;fillColor=#f5f5f5;strokeColor=#666666;fontColor=#333333;" vertex="1" parent="1">
          <mxGeometry x="401" y="360" width="239" height="40" as="geometry" />
        </mxCell>
      </root>
    </mxGraphModel>
  </diagram>
</mxfile>
